<?xml version="1.0" encoding="utf-8"?>
<!-- Generator: Adobe Illustrator 21.0.0, SVG Export Plug-In . SVG Version: 6.00 Build 0)  -->
<svg version="1.1" id="arrows" xmlns="http://www.w3.org/2000/svg" xmlns:xlink="http://www.w3.org/1999/xlink" x="0px" y="0px"
	 viewBox="0 0 237 156" style="enable-background:new 0 0 237 156;" xml:space="preserve">
<style type="text/css">
	.st0{fill-rule:evenodd;clip-rule:evenodd;fill:#F8BCCD;}
</style>
<g>
	<path class="st0" d="M49.9,128c18.9,0.2,36.7-0.3,53.9-2l1.1-2.9c-18.5,2.7-37.6,3.7-56,3.4L49.9,128z"/>
	<path class="st0" d="M120.5,122.5c13.7-4.6,26.3-9.4,38.3-14.9l-0.2-2.9c-12.6,6.6-26,12.1-39.3,16.5L120.5,122.5z"/>
	<path class="st0" d="M171.4,98l1.5,0.8c9.6-8.2,18.2-16.1,26.3-24.2l-1.4-2.5C189.7,81.4,180.8,90.1,171.4,98z"/>
	<path class="st0" d="M210.5,59.5c9.3-16.4,16.2-32.6,22-48.7l-2.1-2.3c-5.5,17.7-12.6,35.2-21.7,51.1L210.5,59.5z"/>
	<path class="st0" d="M12,122.1c7.9,1,15.1,2.4,22.1,4.3l1.1-2.6c-8.3-1.5-16.8-2.5-25.1-3.5l0.1,0.8l-3.4-1.9l9.4-3l11.3-3.4
		c7.5-2.3,14.9-4.4,22.3-6.5l1.8-4.5c-7.9,2.5-15.9,5-23.8,7.6l-11.9,3.9L0,118.6l10.4,5.6l6.7,3.6l13.5,7c9,4.6,17.9,9.2,26.8,13.6
		l-0.9-2.9c-8.9-4.5-17.7-9-26.3-13.5c-4.3-2.3-8.5-4.6-12.7-6.8L12,122.1z"/>
</g>
</svg>
