<?xml version="1.0" encoding="utf-8"?>
<!-- Generator: Adobe Illustrator 21.0.0, SVG Export Plug-In . SVG Version: 6.00 Build 0)  -->
<svg version="1.1" id="arrows" xmlns="http://www.w3.org/2000/svg" xmlns:xlink="http://www.w3.org/1999/xlink" x="0px" y="0px"
	 viewBox="0 0 342 60" style="enable-background:new 0 0 342 60;" xml:space="preserve">
<style type="text/css">
	.st0{fill-rule:evenodd;clip-rule:evenodd;fill:#98D6D7;}
</style>
<path class="st0" d="M335.3,26.9c0.5,1.2,0.6,2.5,0.3,3.7c-0.3,1.2-0.9,2.3-1.6,3.2c-1.5,1.8-3.3,3.2-5.1,4.4
	c-1.8,1.2-3.8,2.3-5.8,3.2c-2,0.8-4.1,1.5-6.2,2.2c-4.1,1.2-8.3,2.2-12.4,3.1l-1.9-2.4c4.5-0.8,9-1.6,13.4-2.8
	c2.2-0.6,4.4-1.2,6.4-2c1-0.4,2-0.9,3-1.4c1-0.5,2-1.1,2.9-1.7c1.8-1.2,3.6-2.6,4.8-4.3c0.6-0.8,1-1.7,1.1-2.7
	c0.1-0.9-0.2-1.9-0.7-2.8c-1-1.8-2.8-3.3-4.6-4.6c-1.8-1.3-3.8-2.4-5.8-3.4c0.5-0.3,1.1-0.6,1.6-0.9c2.1,1.1,4.1,2.3,6,3.7
	C332.5,22.8,334.4,24.5,335.3,26.9z"/>
<path class="st0" d="M247.9,50.7l-1.2-2.6c14-0.6,28.2-0.8,42-1l-0.7,1.6C273.8,48.8,260.6,49.4,247.9,50.7z"/>
<path class="st0" d="M197,50.3l-0.9-2.7c12.1,0,24.5,0.6,36.4,1.7l-0.7,1.5C219.6,49.7,208.1,49.7,197,50.3z"/>
<path class="st0" d="M126.7,46.4l-1.3-2.8c18.2,1.2,36.6,2.7,54.4,4.6l-1.2,1.4C160.5,47.7,143.4,46.8,126.7,46.4z"/>
<path class="st0" d="M109.2,43.2l-0.8,1.4c-11-2.2-21.4-3.3-31.6-3.7l-0.6-2.8C87.2,39.3,98.4,41.1,109.2,43.2z"/>
<path class="st0" d="M27.5,23.9l-7.2,2.2c6.4,2.3,13.1,4,19.7,5.8l20,5l-1.1,1.3c-6.7-1.7-13.3-3.2-19.7-4.7
	c-6.4-1.5-12.7-2.8-18.9-4.6c-0.1-1-0.1-1.9-0.1-2.9l-2.1,0.6L13.8,28l-1.1,0.3l0.7,0.4l0.2,0.1l0.1,0.1l0.3,0.1l1.7,0.9l6.6,3.4
	l13.1,6.9c8.7,4.6,17.3,9.3,25.9,13.9l-3.4,0.6c-8.4-4.6-16.8-9-25.1-13.4L20.3,35L6,27.7l11.1-3.4l9-2.8c6-1.9,11.9-3.8,17.7-5.7
	C55.5,11.9,67.1,8,78.5,4l4.8,2.4c-12.3,4-24.7,7.9-37.1,11.8L27.5,23.9z"/>
</svg>
